STARTFONT 2.1
FONT -FontForge-Bm437 IBM 3270pc-Normal-R-Normal--13-120-75-75-C-90-WinRoman-0
SIZE 12 75 75
FONTBOUNDINGBOX 9 14 0 -3
COMMENT "Generated by fontforge, http://fontforge.sourceforge.net"
COMMENT "FON conversion (c) 2015 VileR, license: CC BY-SA 4.0"
COMMENT "bdf with modified glyphs by Hugh Pyle https://github.com/hughpyle/ASR33"
STARTPROPERTIES 34
FOUNDRY "FontForge"
FAMILY_NAME "Bm437 IBM 3270pc"
WEIGHT_NAME "Normal"
SLANT "R"
SETWIDTH_NAME "Normal"
ADD_STYLE_NAME ""
PIXEL_SIZE 13
POINT_SIZE 120
RESOLUTION_X 75
RESOLUTION_Y 75
SPACING "C"
AVERAGE_WIDTH 90
CHARSET_REGISTRY "WinRoman"
CHARSET_ENCODING "0"
FONTNAME_REGISTRY ""
CHARSET_COLLECTIONS "WinRoman"
FONT_NAME "Bm437IBM3270pc"
FACE_NAME "Bm437 IBM 3270pc"
COPYRIGHT "FON conversion (c) 2015 VileR, license: CC BY-SA 4.0"
FONT_VERSION "001.000"
FONT_ASCENT 10
FONT_DESCENT 3
UNDERLINE_POSITION -1
UNDERLINE_THICKNESS 1
X_HEIGHT 5
CAP_HEIGHT 8
RAW_ASCENT 800
RAW_DESCENT 200
NORM_SPACE 9
RELATIVE_WEIGHT 40
RELATIVE_SETWIDTH 50
FIGURE_WIDTH 9
AVG_LOWERCASE_WIDTH 90
AVG_UPPERCASE_WIDTH 90
ENDPROPERTIES
CHARS 256
STARTCHAR uni0000
ENCODING 0
SWIDTH 692 0
DWIDTH 9 0
BBX 1 1 8 -3
BITMAP
00
ENDCHAR
STARTCHAR uni0001
ENCODING 1
SWIDTH 692 0
DWIDTH 9 0
BBX 8 9 0 0
BITMAP
7E
81
A5
81
81
BD
99
81
7E
ENDCHAR
STARTCHAR uni0002
ENCODING 2
SWIDTH 692 0
DWIDTH 9 0
BBX 8 9 0 0
BITMAP
7E
FF
DB
FF
FF
C3
E7
FF
7E
ENDCHAR
STARTCHAR uni0003
ENCODING 3
SWIDTH 692 0
DWIDTH 9 0
BBX 7 8 1 0
BITMAP
6C
FE
FE
FE
FE
7C
38
10
ENDCHAR
STARTCHAR uni0004
ENCODING 4
SWIDTH 692 0
DWIDTH 9 0
BBX 7 7 1 1
BITMAP
10
38
7C
FE
7C
38
10
ENDCHAR
STARTCHAR uni0005
ENCODING 5
SWIDTH 692 0
DWIDTH 9 0
BBX 8 9 0 0
BITMAP
18
3C
3C
E7
E7
E7
18
18
3C
ENDCHAR
STARTCHAR uni0006
ENCODING 6
SWIDTH 692 0
DWIDTH 9 0
BBX 8 9 0 0
BITMAP
18
3C
7E
FF
FF
7E
18
18
3C
ENDCHAR
STARTCHAR uni0007
ENCODING 7
SWIDTH 692 0
DWIDTH 9 0
BBX 4 4 2 2
BITMAP
60
F0
F0
60
ENDCHAR
STARTCHAR uni0008
ENCODING 8
SWIDTH 692 0
DWIDTH 9 0
BBX 9 14 0 -3
BITMAP
FF80
FF80
FF80
FF80
FF80
E380
C180
C180
E380
FF80
FF80
FF80
FF80
FF80
ENDCHAR
STARTCHAR uni0009
ENCODING 9
SWIDTH 692 0
DWIDTH 9 0
BBX 6 6 1 1
BITMAP
78
CC
84
84
CC
78
ENDCHAR
STARTCHAR uni000A
ENCODING 10
SWIDTH 692 0
DWIDTH 9 0
BBX 9 14 0 -3
BITMAP
FF80
FF80
FF80
FF80
C180
9C80
BE80
BE80
9C80
C180
FF80
FF80
FF80
FF80
ENDCHAR
STARTCHAR uni000B
ENCODING 11
SWIDTH 692 0
DWIDTH 9 0
BBX 7 9 1 0
BITMAP
1E
0E
1A
32
78
CC
CC
CC
78
ENDCHAR
STARTCHAR uni000C
ENCODING 12
SWIDTH 692 0
DWIDTH 9 0
BBX 6 9 1 0
BITMAP
78
CC
CC
CC
78
30
FC
30
30
ENDCHAR
STARTCHAR uni000D
ENCODING 13
SWIDTH 692 0
DWIDTH 9 0
BBX 8 9 0 0
BITMAP
3F
33
3F
30
30
30
70
F0
E0
ENDCHAR
STARTCHAR uni000E
ENCODING 14
SWIDTH 692 0
DWIDTH 9 0
BBX 8 10 0 -1
BITMAP
7F
63
7F
63
63
63
67
E7
E6
C0
ENDCHAR
STARTCHAR uni000F
ENCODING 15
SWIDTH 692 0
DWIDTH 9 0
BBX 8 9 0 0
BITMAP
18
18
DB
3C
E7
3C
DB
18
18
ENDCHAR
STARTCHAR uni0010
ENCODING 16
SWIDTH 692 0
DWIDTH 9 0
BBX 7 9 1 0
BITMAP
80
C0
E0
F8
FE
F8
E0
C0
80
ENDCHAR
STARTCHAR uni0011
ENCODING 17
SWIDTH 692 0
DWIDTH 9 0
BBX 7 9 1 0
BITMAP
02
06
0E
3E
FE
3E
0E
06
02
ENDCHAR
STARTCHAR uni0012
ENCODING 18
SWIDTH 692 0
DWIDTH 9 0
BBX 6 9 1 0
BITMAP
30
78
FC
30
30
30
FC
78
30
ENDCHAR
STARTCHAR uni0013
ENCODING 19
SWIDTH 692 0
DWIDTH 9 0
BBX 6 9 2 0
BITMAP
CC
CC
CC
CC
CC
CC
00
CC
CC
ENDCHAR
STARTCHAR uni0014
ENCODING 20
SWIDTH 692 0
DWIDTH 9 0
BBX 8 10 0 0
BITMAP
7F
F6
F6
F6
76
36
36
36
36
36
ENDCHAR
STARTCHAR uni0015
ENCODING 21
SWIDTH 692 0
DWIDTH 9 0
BBX 8 11 0 -1
BITMAP
1E
30
78
CC
C6
C3
63
33
1E
0C
78
ENDCHAR
STARTCHAR uni0016
ENCODING 22
SWIDTH 692 0
DWIDTH 9 0
BBX 7 3 1 0
BITMAP
FE
FE
FE
ENDCHAR
STARTCHAR uni0017
ENCODING 23
SWIDTH 692 0
DWIDTH 9 0
BBX 6 10 1 -1
BITMAP
30
78
FC
30
30
30
FC
78
30
FC
ENDCHAR
STARTCHAR uni0018
ENCODING 24
SWIDTH 692 0
DWIDTH 9 0
BBX 6 9 1 0
BITMAP
30
78
FC
30
30
30
30
30
30
ENDCHAR
STARTCHAR uni0019
ENCODING 25
SWIDTH 692 0
DWIDTH 9 0
BBX 6 9 1 0
BITMAP
30
30
30
30
30
30
FC
78
30
ENDCHAR
STARTCHAR uni001A
ENCODING 26
SWIDTH 692 0
DWIDTH 9 0
BBX 7 5 1 2
BITMAP
18
0C
FE
0C
18
ENDCHAR
STARTCHAR uni001B
ENCODING 27
SWIDTH 692 0
DWIDTH 9 0
BBX 7 5 1 2
BITMAP
30
60
FE
60
30
ENDCHAR
STARTCHAR uni001C
ENCODING 28
SWIDTH 692 0
DWIDTH 9 0
BBX 7 4 1 2
BITMAP
C0
C0
C0
FE
ENDCHAR
STARTCHAR uni001D
ENCODING 29
SWIDTH 692 0
DWIDTH 9 0
BBX 8 5 0 2
BITMAP
24
66
FF
66
24
ENDCHAR
STARTCHAR uni001E
ENCODING 30
SWIDTH 692 0
DWIDTH 9 0
BBX 7 7 1 1
BITMAP
10
38
38
7C
7C
FE
FE
ENDCHAR
STARTCHAR uni001F
ENCODING 31
SWIDTH 692 0
DWIDTH 9 0
BBX 7 7 1 1
BITMAP
FE
FE
7C
7C
38
38
10
ENDCHAR
STARTCHAR space
ENCODING 32
SWIDTH 692 0
DWIDTH 9 0
BBX 1 1 8 -3
BITMAP
00
ENDCHAR
STARTCHAR exclam
ENCODING 33
SWIDTH 692 0
DWIDTH 9 0
BBX 2 9 3 0
BITMAP
C0
C0
C0
C0
C0
C0
00
C0
C0
ENDCHAR
STARTCHAR quotedbl
ENCODING 34
SWIDTH 692 0
DWIDTH 9 0
BBX 6 4 1 5
BITMAP
CC
CC
CC
CC
ENDCHAR
STARTCHAR numbersign
ENCODING 35
SWIDTH 692 0
DWIDTH 9 0
BBX 7 9 1 0
BITMAP
6C
6C
FE
6C
6C
6C
FE
6C
6C
ENDCHAR
STARTCHAR dollar
ENCODING 36
SWIDTH 692 0
DWIDTH 9 0
BBX 7 9 1 0
BITMAP
7C
DE
DA
D8
7C
36
B6
F6
7C
ENDCHAR
STARTCHAR percent
ENCODING 37
SWIDTH 692 0
DWIDTH 9 0
BBX 8 7 1 1
BITMAP
C2
C6
0C
18
30
63
C3
ENDCHAR
STARTCHAR ampersand
ENCODING 38
SWIDTH 692 0
DWIDTH 9 0
BBX 7 9 1 0
BITMAP
38
6C
6C
38
76
DC
CC
CC
76
ENDCHAR
STARTCHAR quotesingle
ENCODING 39
SWIDTH 692 0
DWIDTH 9 0
BBX 2 4 3 5
BITMAP
C0
C0
C0
C0
ENDCHAR
STARTCHAR parenleft
ENCODING 40
SWIDTH 692 0
DWIDTH 9 0
BBX 4 9 2 0
BITMAP
30
60
C0
C0
C0
C0
C0
60
30
ENDCHAR
STARTCHAR parenright
ENCODING 41
SWIDTH 692 0
DWIDTH 9 0
BBX 4 9 3 0
BITMAP
C0
60
30
30
30
30
30
60
C0
ENDCHAR
STARTCHAR asterisk
ENCODING 42
SWIDTH 692 0
DWIDTH 9 0
BBX 8 5 0 2
BITMAP
66
3C
FF
3C
66
ENDCHAR
STARTCHAR plus
ENCODING 43
SWIDTH 692 0
DWIDTH 9 0
BBX 8 7 0 1
BITMAP
18
18
18
FF
18
18
18
ENDCHAR
STARTCHAR comma
ENCODING 44
SWIDTH 692 0
DWIDTH 9 0
BBX 4 4 2 -1
BITMAP
30
30
60
C0
ENDCHAR
STARTCHAR hyphen
ENCODING 45
SWIDTH 692 0
DWIDTH 9 0
BBX 5 1 2 4
BITMAP
F8
ENDCHAR
STARTCHAR period
ENCODING 46
SWIDTH 692 0
DWIDTH 9 0
BBX 2 2 3 0
BITMAP
C0
C0
ENDCHAR
STARTCHAR slash
ENCODING 47
SWIDTH 692 0
DWIDTH 9 0
BBX 7 8 1 1
BITMAP
02
06
0C
18
30
60
C0
80
ENDCHAR
STARTCHAR zero
ENCODING 48
SWIDTH 692 0
DWIDTH 9 0
BBX 7 9 1 0
BITMAP
38
6C
C6
D6
D6
C6
C6
6C
38
ENDCHAR
STARTCHAR one
ENCODING 49
SWIDTH 692 0
DWIDTH 9 0
BBX 4 9 2 0
BITMAP
30
70
F0
30
30
30
30
30
30
ENDCHAR
STARTCHAR two
ENCODING 50
SWIDTH 692 0
DWIDTH 9 0
BBX 7 9 1 0
BITMAP
7C
C6
06
0C
18
30
60
C0
FE
ENDCHAR
STARTCHAR three
ENCODING 51
SWIDTH 692 0
DWIDTH 9 0
BBX 7 9 1 0
BITMAP
FE
06
0C
38
0C
06
06
C6
7C
ENDCHAR
STARTCHAR four
ENCODING 52
SWIDTH 692 0
DWIDTH 9 0
BBX 7 9 1 0
BITMAP
0C
1C
3C
6C
CC
FE
0C
0C
0C
ENDCHAR
STARTCHAR five
ENCODING 53
SWIDTH 692 0
DWIDTH 9 0
BBX 7 9 1 0
BITMAP
FE
C0
C0
C0
FC
06
06
06
FC
ENDCHAR
STARTCHAR six
ENCODING 54
SWIDTH 692 0
DWIDTH 9 0
BBX 7 9 1 0
BITMAP
30
60
C0
C0
FC
C6
C6
C6
7C
ENDCHAR
STARTCHAR seven
ENCODING 55
SWIDTH 692 0
DWIDTH 9 0
BBX 7 9 1 0
BITMAP
FE
06
06
0C
18
30
30
30
30
ENDCHAR
STARTCHAR eight
ENCODING 56
SWIDTH 692 0
DWIDTH 9 0
BBX 7 9 1 0
BITMAP
7C
C6
C6
C6
7C
C6
C6
C6
7C
ENDCHAR
STARTCHAR nine
ENCODING 57
SWIDTH 692 0
DWIDTH 9 0
BBX 7 9 1 0
BITMAP
7C
C6
C6
C6
7E
06
06
0C
18
ENDCHAR
STARTCHAR colon
ENCODING 58
SWIDTH 692 0
DWIDTH 9 0
BBX 2 6 3 0
BITMAP
C0
C0
00
00
C0
C0
ENDCHAR
STARTCHAR semicolon
ENCODING 59
SWIDTH 692 0
DWIDTH 9 0
BBX 4 8 2 -1
BITMAP
30
30
00
00
30
30
60
C0
ENDCHAR
STARTCHAR less
ENCODING 60
SWIDTH 692 0
DWIDTH 9 0
BBX 6 9 1 0
BITMAP
0C
18
30
60
C0
60
30
18
0C
ENDCHAR
STARTCHAR equal
ENCODING 61
SWIDTH 692 0
DWIDTH 9 0
BBX 6 4 1 2
BITMAP
FC
00
00
FC
ENDCHAR
STARTCHAR greater
ENCODING 62
SWIDTH 692 0
DWIDTH 9 0
BBX 6 9 1 0
BITMAP
C0
60
30
18
0C
18
30
60
C0
ENDCHAR
STARTCHAR question
ENCODING 63
SWIDTH 692 0
DWIDTH 9 0
BBX 7 9 1 0
BITMAP
7C
C6
C6
0C
18
18
00
18
18
ENDCHAR
STARTCHAR at
ENCODING 64
SWIDTH 692 0
DWIDTH 9 0
BBX 7 9 1 0
BITMAP
7C
C6
C6
DE
DE
DE
DC
C0
7C
ENDCHAR
STARTCHAR A
ENCODING 65
SWIDTH 692 0
DWIDTH 9 0
BBX 7 9 1 0
BITMAP
10
38
6C
C6
C6
FE
C6
C6
C6
ENDCHAR
STARTCHAR B
ENCODING 66
SWIDTH 692 0
DWIDTH 9 0
BBX 7 9 1 0
BITMAP
FC
66
66
66
7C
66
66
66
FC
ENDCHAR
STARTCHAR C
ENCODING 67
SWIDTH 692 0
DWIDTH 9 0
BBX 7 9 1 0
BITMAP
3C
66
C0
C0
C0
C0
C0
66
3C
ENDCHAR
STARTCHAR D
ENCODING 68
SWIDTH 692 0
DWIDTH 9 0
BBX 7 9 1 0
BITMAP
F8
6C
66
66
66
66
66
6C
F8
ENDCHAR
STARTCHAR E
ENCODING 69
SWIDTH 692 0
DWIDTH 9 0
BBX 7 9 1 0
BITMAP
FE
C0
C0
C0
F8
C0
C0
C0
FE
ENDCHAR
STARTCHAR F
ENCODING 70
SWIDTH 692 0
DWIDTH 9 0
BBX 7 9 1 0
BITMAP
FE
C0
C0
C0
F8
C0
C0
C0
C0
ENDCHAR
STARTCHAR G
ENCODING 71
SWIDTH 692 0
DWIDTH 9 0
BBX 8 9 1 0
BITMAP
3C
66
C0
C0
C0
CF
C6
66
3E
ENDCHAR
STARTCHAR H
ENCODING 72
SWIDTH 692 0
DWIDTH 9 0
BBX 7 9 1 0
BITMAP
C6
C6
C6
C6
FE
C6
C6
C6
C6
ENDCHAR
STARTCHAR I
ENCODING 73
SWIDTH 692 0
DWIDTH 9 0
BBX 4 9 2 0
BITMAP
F0
60
60
60
60
60
60
60
F0
ENDCHAR
STARTCHAR J
ENCODING 74
SWIDTH 692 0
DWIDTH 9 0
BBX 7 9 1 0
BITMAP
1E
0C
0C
0C
0C
0C
CC
CC
78
ENDCHAR
STARTCHAR K
ENCODING 75
SWIDTH 692 0
DWIDTH 9 0
BBX 7 9 1 0
BITMAP
C6
CC
D8
F0
F0
F0
D8
CC
C6
ENDCHAR
STARTCHAR L
ENCODING 76
SWIDTH 692 0
DWIDTH 9 0
BBX 7 9 1 0
BITMAP
C0
C0
C0
C0
C0
C0
C0
C0
FE
ENDCHAR
STARTCHAR M
ENCODING 77
SWIDTH 692 0
DWIDTH 9 0
BBX 8 9 0 0
BITMAP
C3
E7
FF
DB
C3
C3
C3
C3
C3
ENDCHAR
STARTCHAR N
ENCODING 78
SWIDTH 692 0
DWIDTH 9 0
BBX 7 9 1 0
BITMAP
C6
E6
F6
FE
DE
CE
C6
C6
C6
ENDCHAR
STARTCHAR O
ENCODING 79
SWIDTH 692 0
DWIDTH 9 0
BBX 7 9 1 0
BITMAP
7C
C6
C6
C6
C6
C6
C6
C6
7C
ENDCHAR
STARTCHAR P
ENCODING 80
SWIDTH 692 0
DWIDTH 9 0
BBX 7 9 1 0
BITMAP
FC
C6
C6
C6
FC
C0
C0
C0
C0
ENDCHAR
STARTCHAR Q
ENCODING 81
SWIDTH 692 0
DWIDTH 9 0
BBX 8 9 1 0
BITMAP
7C
C6
C6
C6
D6
DE
CC
CE
7B
ENDCHAR
STARTCHAR R
ENCODING 82
SWIDTH 692 0
DWIDTH 9 0
BBX 7 9 1 0
BITMAP
FC
C6
C6
C6
FC
F8
D8
CC
C6
ENDCHAR
STARTCHAR S
ENCODING 83
SWIDTH 692 0
DWIDTH 9 0
BBX 7 9 1 0
BITMAP
7C
C6
C0
60
38
0C
06
C6
7C
ENDCHAR
STARTCHAR T
ENCODING 84
SWIDTH 692 0
DWIDTH 9 0
BBX 8 9 0 0
BITMAP
FF
18
18
18
18
18
18
18
18
ENDCHAR
STARTCHAR U
ENCODING 85
SWIDTH 692 0
DWIDTH 9 0
BBX 7 9 1 0
BITMAP
C6
C6
C6
C6
C6
C6
C6
C6
7C
ENDCHAR
STARTCHAR V
ENCODING 86
SWIDTH 692 0
DWIDTH 9 0
BBX 8 9 0 0
BITMAP
C3
C3
C3
C3
C3
66
66
3C
18
ENDCHAR
STARTCHAR W
ENCODING 87
SWIDTH 692 0
DWIDTH 9 0
BBX 8 9 0 0
BITMAP
C3
C3
C3
C3
DB
DB
FF
66
66
ENDCHAR
STARTCHAR X
ENCODING 88
SWIDTH 692 0
DWIDTH 9 0
BBX 8 9 0 0
BITMAP
C3
C3
66
3C
18
3C
66
C3
C3
ENDCHAR
STARTCHAR Y
ENCODING 89
SWIDTH 692 0
DWIDTH 9 0
BBX 8 9 0 0
BITMAP
C3
C3
66
66
3C
18
18
18
18
ENDCHAR
STARTCHAR Z
ENCODING 90
SWIDTH 692 0
DWIDTH 9 0
BBX 8 9 0 0
BITMAP
FF
03
06
0C
18
30
60
C0
FF
ENDCHAR
STARTCHAR bracketleft
ENCODING 91
SWIDTH 692 0
DWIDTH 9 0
BBX 4 9 2 0
BITMAP
F0
C0
C0
C0
C0
C0
C0
C0
F0
ENDCHAR
STARTCHAR backslash
ENCODING 92
SWIDTH 692 0
DWIDTH 9 0
BBX 7 8 1 1
BITMAP
80
C0
60
30
18
0C
06
02
ENDCHAR
STARTCHAR bracketright
ENCODING 93
SWIDTH 692 0
DWIDTH 9 0
BBX 4 9 2 0
BITMAP
F0
30
30
30
30
30
30
30
F0
ENDCHAR
STARTCHAR asciicircum
ENCODING 94
SWIDTH 692 0
DWIDTH 9 0
BBX 7 4 1 5
BITMAP
10
38
6C
C6
ENDCHAR
STARTCHAR underscore
ENCODING 95
SWIDTH 692 0
DWIDTH 9 0
BBX 8 1 0 0
BITMAP
FF
ENDCHAR
STARTCHAR grave
ENCODING 96
SWIDTH 692 0
DWIDTH 9 0
BBX 3 3 3 6
BITMAP
C0
C0
60
ENDCHAR
STARTCHAR a
ENCODING 97
SWIDTH 692 0
DWIDTH 9 0
BBX 7 6 1 0
BITMAP
78
0C
7C
CC
CC
7E
ENDCHAR
STARTCHAR b
ENCODING 98
SWIDTH 692 0
DWIDTH 9 0
BBX 7 9 1 0
BITMAP
C0
C0
C0
F8
CC
C6
C6
C6
FC
ENDCHAR
STARTCHAR c
ENCODING 99
SWIDTH 692 0
DWIDTH 9 0
BBX 7 6 1 0
BITMAP
7E
C0
C0
C0
C0
7E
ENDCHAR
STARTCHAR d
ENCODING 100
SWIDTH 692 0
DWIDTH 9 0
BBX 7 9 1 0
BITMAP
06
06
06
3E
66
C6
C6
C6
7E
ENDCHAR
STARTCHAR e
ENCODING 101
SWIDTH 692 0
DWIDTH 9 0
BBX 7 6 1 0
BITMAP
7C
C6
FE
C0
C0
7E
ENDCHAR
STARTCHAR f
ENCODING 102
SWIDTH 692 0
DWIDTH 9 0
BBX 6 9 1 0
BITMAP
3C
60
60
F8
60
60
60
60
60
ENDCHAR
STARTCHAR g
ENCODING 103
SWIDTH 692 0
DWIDTH 9 0
BBX 7 8 1 -2
BITMAP
76
CC
CC
CC
7C
0C
CC
78
ENDCHAR
STARTCHAR h
ENCODING 104
SWIDTH 692 0
DWIDTH 9 0
BBX 7 9 1 0
BITMAP
C0
C0
C0
DC
E6
C6
C6
C6
C6
ENDCHAR
STARTCHAR i
ENCODING 105
SWIDTH 692 0
DWIDTH 9 0
BBX 2 9 3 0
BITMAP
C0
C0
00
C0
C0
C0
C0
C0
C0
ENDCHAR
STARTCHAR j
ENCODING 106
SWIDTH 692 0
DWIDTH 9 0
BBX 6 11 1 -2
BITMAP
0C
0C
00
0C
0C
0C
0C
0C
CC
CC
78
ENDCHAR
STARTCHAR k
ENCODING 107
SWIDTH 692 0
DWIDTH 9 0
BBX 7 9 1 0
BITMAP
C0
C0
C6
CC
D8
F0
D8
CC
C6
ENDCHAR
STARTCHAR l
ENCODING 108
SWIDTH 692 0
DWIDTH 9 0
BBX 3 9 3 0
BITMAP
C0
C0
C0
C0
C0
C0
C0
C0
E0
ENDCHAR
STARTCHAR m
ENCODING 109
SWIDTH 692 0
DWIDTH 9 0
BBX 8 6 0 0
BITMAP
66
FF
DB
DB
DB
DB
ENDCHAR
STARTCHAR n
ENCODING 110
SWIDTH 692 0
DWIDTH 9 0
BBX 7 6 1 0
BITMAP
DC
66
66
66
66
66
ENDCHAR
STARTCHAR o
ENCODING 111
SWIDTH 692 0
DWIDTH 9 0
BBX 7 6 1 0
BITMAP
7C
C6
C6
C6
C6
7C
ENDCHAR
STARTCHAR p
ENCODING 112
SWIDTH 692 0
DWIDTH 9 0
BBX 7 8 1 -2
BITMAP
FC
C6
C6
C6
FC
C0
C0
C0
ENDCHAR
STARTCHAR q
ENCODING 113
SWIDTH 692 0
DWIDTH 9 0
BBX 8 8 1 -2
BITMAP
7C
CC
CC
CC
7C
0C
0F
0F
ENDCHAR
STARTCHAR r
ENCODING 114
SWIDTH 692 0
DWIDTH 9 0
BBX 7 6 1 0
BITMAP
DC
76
60
60
60
60
ENDCHAR
STARTCHAR s
ENCODING 115
SWIDTH 692 0
DWIDTH 9 0
BBX 7 6 1 0
BITMAP
7C
C6
70
1C
C6
7C
ENDCHAR
STARTCHAR t
ENCODING 116
SWIDTH 692 0
DWIDTH 9 0
BBX 6 9 1 0
BITMAP
30
30
30
FC
30
30
30
30
30
ENDCHAR
STARTCHAR u
ENCODING 117
SWIDTH 692 0
DWIDTH 9 0
BBX 7 6 1 0
BITMAP
CC
CC
CC
CC
CC
76
ENDCHAR
STARTCHAR v
ENCODING 118
SWIDTH 692 0
DWIDTH 9 0
BBX 8 6 0 0
BITMAP
C3
C3
66
66
3C
18
ENDCHAR
STARTCHAR w
ENCODING 119
SWIDTH 692 0
DWIDTH 9 0
BBX 8 6 0 0
BITMAP
C3
C3
DB
DB
FF
66
ENDCHAR
STARTCHAR x
ENCODING 120
SWIDTH 692 0
DWIDTH 9 0
BBX 7 6 1 0
BITMAP
C6
6C
38
38
6C
C6
ENDCHAR
STARTCHAR y
ENCODING 121
SWIDTH 692 0
DWIDTH 9 0
BBX 7 8 1 -2
BITMAP
C6
C6
6C
6C
38
18
30
60
ENDCHAR
STARTCHAR z
ENCODING 122
SWIDTH 692 0
DWIDTH 9 0
BBX 7 6 1 0
BITMAP
FE
0C
18
30
60
FE
ENDCHAR
STARTCHAR braceleft
ENCODING 123
SWIDTH 692 0
DWIDTH 9 0
BBX 6 9 1 0
BITMAP
1C
30
30
30
E0
30
30
30
1C
ENDCHAR
STARTCHAR bar
ENCODING 124
SWIDTH 692 0
DWIDTH 9 0
BBX 2 9 3 0
BITMAP
C0
C0
C0
C0
00
C0
C0
C0
C0
ENDCHAR
STARTCHAR braceright
ENCODING 125
SWIDTH 692 0
DWIDTH 9 0
BBX 6 9 1 0
BITMAP
E0
30
30
30
1C
30
30
30
E0
ENDCHAR
STARTCHAR asciitilde
ENCODING 126
SWIDTH 692 0
DWIDTH 9 0
BBX 7 2 1 7
BITMAP
76
DC
ENDCHAR
STARTCHAR uni007F
ENCODING 127
SWIDTH 692 0
DWIDTH 9 0
BBX 7 6 1 1
BITMAP
10
38
6C
C6
C6
FE
ENDCHAR
STARTCHAR Euro
ENCODING 128
SWIDTH 692 0
DWIDTH 9 0
BBX 7 10 1 -1
BITMAP
3C
66
C0
C0
C0
C0
E0
66
3C
F0
ENDCHAR
STARTCHAR NameMe.129
ENCODING 129
SWIDTH 692 0
DWIDTH 9 0
BBX 7 9 1 0
BITMAP
CC
CC
00
CC
CC
CC
CC
CC
76
ENDCHAR
STARTCHAR quotesinglbase
ENCODING 130
SWIDTH 692 0
DWIDTH 9 0
BBX 7 10 1 0
BITMAP
0C
18
30
00
7C
C6
FE
C0
C0
7E
ENDCHAR
STARTCHAR florin
ENCODING 131
SWIDTH 692 0
DWIDTH 9 0
BBX 7 10 1 0
BITMAP
10
38
6C
00
78
0C
7C
CC
CC
7E
ENDCHAR
STARTCHAR quotedblbase
ENCODING 132
SWIDTH 692 0
DWIDTH 9 0
BBX 7 9 1 0
BITMAP
CC
CC
00
78
0C
7C
CC
CC
7E
ENDCHAR
STARTCHAR ellipsis
ENCODING 133
SWIDTH 692 0
DWIDTH 9 0
BBX 7 10 1 0
BITMAP
60
30
18
00
78
0C
7C
CC
CC
7E
ENDCHAR
STARTCHAR dagger
ENCODING 134
SWIDTH 692 0
DWIDTH 9 0
BBX 7 10 1 0
BITMAP
38
6C
38
00
78
0C
7C
CC
CC
7E
ENDCHAR
STARTCHAR daggerdbl
ENCODING 135
SWIDTH 692 0
DWIDTH 9 0
BBX 7 7 1 -1
BITMAP
3E
60
60
60
60
3E
F8
ENDCHAR
STARTCHAR circumflex
ENCODING 136
SWIDTH 692 0
DWIDTH 9 0
BBX 7 10 1 0
BITMAP
10
38
6C
00
7C
C6
FE
C0
C0
7E
ENDCHAR
STARTCHAR perthousand
ENCODING 137
SWIDTH 692 0
DWIDTH 9 0
BBX 7 9 1 0
BITMAP
CC
CC
00
7C
C6
FE
C0
C0
7E
ENDCHAR
STARTCHAR Scaron
ENCODING 138
SWIDTH 692 0
DWIDTH 9 0
BBX 7 10 1 0
BITMAP
60
30
18
00
7C
C6
FE
C0
C0
7E
ENDCHAR
STARTCHAR guilsinglleft
ENCODING 139
SWIDTH 692 0
DWIDTH 9 0
BBX 6 9 1 0
BITMAP
CC
CC
00
30
30
30
30
30
30
ENDCHAR
STARTCHAR OE
ENCODING 140
SWIDTH 692 0
DWIDTH 9 0
BBX 6 10 1 0
BITMAP
30
78
CC
00
30
30
30
30
30
30
ENDCHAR
STARTCHAR NameMe.141
ENCODING 141
SWIDTH 692 0
DWIDTH 9 0
BBX 4 10 2 0
BITMAP
C0
60
30
00
60
60
60
60
60
60
ENDCHAR
STARTCHAR Zcaron
ENCODING 142
SWIDTH 692 0
DWIDTH 9 0
BBX 7 11 1 0
BITMAP
C6
C6
00
10
38
6C
C6
C6
FE
C6
C6
ENDCHAR
STARTCHAR NameMe.143
ENCODING 143
SWIDTH 692 0
DWIDTH 9 0
BBX 7 11 1 0
BITMAP
38
6C
38
00
38
6C
C6
C6
FE
C6
C6
ENDCHAR
STARTCHAR NameMe.144
ENCODING 144
SWIDTH 692 0
DWIDTH 9 0
BBX 7 11 1 0
BITMAP
0C
18
30
00
FE
C0
C0
F8
C0
C0
FE
ENDCHAR
STARTCHAR quoteleft
ENCODING 145
SWIDTH 692 0
DWIDTH 9 0
BBX 8 6 0 0
BITMAP
76
1B
7B
DF
D8
77
ENDCHAR
STARTCHAR quoteright
ENCODING 146
SWIDTH 692 0
DWIDTH 9 0
BBX 8 9 0 0
BITMAP
1F
3C
6C
CC
CF
FC
CC
CC
CF
ENDCHAR
STARTCHAR quotedblleft
ENCODING 147
SWIDTH 692 0
DWIDTH 9 0
BBX 7 10 1 0
BITMAP
10
38
6C
00
7C
C6
C6
C6
C6
7C
ENDCHAR
STARTCHAR quotedblright
ENCODING 148
SWIDTH 692 0
DWIDTH 9 0
BBX 7 9 1 0
BITMAP
C6
C6
00
7C
C6
C6
C6
C6
7C
ENDCHAR
STARTCHAR bullet
ENCODING 149
SWIDTH 692 0
DWIDTH 9 0
BBX 7 10 1 0
BITMAP
60
30
18
00
7C
C6
C6
C6
C6
7C
ENDCHAR
STARTCHAR endash
ENCODING 150
SWIDTH 692 0
DWIDTH 9 0
BBX 7 10 1 0
BITMAP
30
78
CC
00
CC
CC
CC
CC
CC
76
ENDCHAR
STARTCHAR emdash
ENCODING 151
SWIDTH 692 0
DWIDTH 9 0
BBX 7 10 1 0
BITMAP
60
30
18
00
CC
CC
CC
CC
CC
76
ENDCHAR
STARTCHAR tilde
ENCODING 152
SWIDTH 692 0
DWIDTH 9 0
BBX 7 11 1 -2
BITMAP
C6
C6
00
C6
C6
6C
6C
38
18
30
60
ENDCHAR
STARTCHAR trademark
ENCODING 153
SWIDTH 692 0
DWIDTH 9 0
BBX 7 11 1 0
BITMAP
C6
C6
00
7C
C6
C6
C6
C6
C6
C6
7C
ENDCHAR
STARTCHAR scaron
ENCODING 154
SWIDTH 692 0
DWIDTH 9 0
BBX 7 11 1 0
BITMAP
C6
C6
00
C6
C6
C6
C6
C6
C6
C6
7C
ENDCHAR
STARTCHAR guilsinglright
ENCODING 155
SWIDTH 692 0
DWIDTH 9 0
BBX 8 10 0 0
BITMAP
18
18
7E
C3
C0
C0
C3
7E
18
18
ENDCHAR
STARTCHAR oe
ENCODING 156
SWIDTH 692 0
DWIDTH 9 0
BBX 7 10 1 0
BITMAP
3C
66
62
60
F0
60
60
60
E6
DC
ENDCHAR
STARTCHAR NameMe.157
ENCODING 157
SWIDTH 692 0
DWIDTH 9 0
BBX 8 9 0 0
BITMAP
C3
66
3C
18
FF
18
FF
18
18
ENDCHAR
STARTCHAR zcaron
ENCODING 158
SWIDTH 692 0
DWIDTH 9 0
BBX 7 11 1 -1
BITMAP
FC
C6
C6
FC
C0
CC
CC
DE
CC
CC
0C
ENDCHAR
STARTCHAR Ydieresis
ENCODING 159
SWIDTH 692 0
DWIDTH 9 0
BBX 8 12 0 -2
BITMAP
0E
1B
18
18
18
7E
18
18
18
18
D8
70
ENDCHAR
STARTCHAR uni00A0
ENCODING 160
SWIDTH 692 0
DWIDTH 9 0
BBX 7 10 1 0
BITMAP
0C
18
30
00
78
0C
7C
CC
CC
7E
ENDCHAR
STARTCHAR exclamdown
ENCODING 161
SWIDTH 692 0
DWIDTH 9 0
BBX 4 10 2 0
BITMAP
30
60
C0
00
60
60
60
60
60
60
ENDCHAR
STARTCHAR cent
ENCODING 162
SWIDTH 692 0
DWIDTH 9 0
BBX 7 10 1 0
BITMAP
0C
18
30
00
7C
C6
C6
C6
C6
7C
ENDCHAR
STARTCHAR sterling
ENCODING 163
SWIDTH 692 0
DWIDTH 9 0
BBX 7 10 1 0
BITMAP
0C
18
30
00
CC
CC
CC
CC
CC
76
ENDCHAR
STARTCHAR currency
ENCODING 164
SWIDTH 692 0
DWIDTH 9 0
BBX 7 9 1 0
BITMAP
76
DC
00
DC
66
66
66
66
66
ENDCHAR
STARTCHAR yen
ENCODING 165
SWIDTH 692 0
DWIDTH 9 0
BBX 7 11 1 0
BITMAP
76
DC
00
C6
E6
F6
FE
DE
CE
C6
C6
ENDCHAR
STARTCHAR brokenbar
ENCODING 166
SWIDTH 692 0
DWIDTH 9 0
BBX 6 6 1 4
BITMAP
78
D8
D8
7C
00
FC
ENDCHAR
STARTCHAR section
ENCODING 167
SWIDTH 692 0
DWIDTH 9 0
BBX 5 6 1 4
BITMAP
70
D8
D8
70
00
F8
ENDCHAR
STARTCHAR dieresis
ENCODING 168
SWIDTH 692 0
DWIDTH 9 0
BBX 7 9 1 -1
BITMAP
30
30
00
30
30
60
C6
C6
7C
ENDCHAR
STARTCHAR copyright
ENCODING 169
SWIDTH 692 0
DWIDTH 9 0
BBX 7 4 1 1
BITMAP
FE
C0
C0
C0
ENDCHAR
STARTCHAR ordfeminine
ENCODING 170
SWIDTH 692 0
DWIDTH 9 0
BBX 7 4 1 1
BITMAP
FE
06
06
06
ENDCHAR
STARTCHAR guillemotleft
ENCODING 171
SWIDTH 692 0
DWIDTH 9 0
BBX 8 12 0 -2
BITMAP
60
E0
63
66
6C
18
30
6E
C3
06
0C
1F
ENDCHAR
STARTCHAR logicalnot
ENCODING 172
SWIDTH 692 0
DWIDTH 9 0
BBX 8 12 0 -2
BITMAP
60
E0
63
66
6C
18
33
67
CF
1F
03
03
ENDCHAR
STARTCHAR uni00AD
ENCODING 173
SWIDTH 692 0
DWIDTH 9 0
BBX 2 9 3 -2
BITMAP
C0
C0
00
C0
C0
C0
C0
C0
C0
ENDCHAR
STARTCHAR registered
ENCODING 174
SWIDTH 692 0
DWIDTH 9 0
BBX 7 5 1 2
BITMAP
36
6C
D8
6C
36
ENDCHAR
STARTCHAR macron
ENCODING 175
SWIDTH 692 0
DWIDTH 9 0
BBX 7 5 1 2
BITMAP
D8
6C
36
6C
D8
ENDCHAR
STARTCHAR degree
ENCODING 176
SWIDTH 692 0
DWIDTH 9 0
BBX 7 14 1 -3
BITMAP
22
88
22
88
22
88
22
88
22
88
22
88
22
88
ENDCHAR
STARTCHAR plusminus
ENCODING 177
SWIDTH 692 0
DWIDTH 9 0
BBX 8 14 0 -3
BITMAP
55
AA
55
AA
55
AA
55
AA
55
AA
55
AA
55
AA
ENDCHAR
STARTCHAR uni00B2
ENCODING 178
SWIDTH 692 0
DWIDTH 9 0
BBX 8 14 0 -3
BITMAP
DD
77
DD
77
DD
77
DD
77
DD
77
DD
77
DD
77
ENDCHAR
STARTCHAR uni00B3
ENCODING 179
SWIDTH 692 0
DWIDTH 9 0
BBX 2 14 3 -3
BITMAP
C0
C0
C0
C0
C0
C0
C0
C0
C0
C0
C0
C0
C0
C0
ENDCHAR
STARTCHAR acute
ENCODING 180
SWIDTH 692 0
DWIDTH 9 0
BBX 5 14 0 -3
BITMAP
18
18
18
18
18
18
18
F8
18
18
18
18
18
18
ENDCHAR
STARTCHAR mu
ENCODING 181
SWIDTH 692 0
DWIDTH 9 0
BBX 5 14 0 -3
BITMAP
18
18
18
18
18
F8
18
F8
18
18
18
18
18
18
ENDCHAR
STARTCHAR paragraph
ENCODING 182
SWIDTH 692 0
DWIDTH 9 0
BBX 7 14 0 -3
BITMAP
36
36
36
36
36
36
36
F6
36
36
36
36
36
36
ENDCHAR
STARTCHAR periodcentered
ENCODING 183
SWIDTH 692 0
DWIDTH 9 0
BBX 7 7 0 -3
BITMAP
FE
36
36
36
36
36
36
ENDCHAR
STARTCHAR cedilla
ENCODING 184
SWIDTH 692 0
DWIDTH 9 0
BBX 5 9 0 -3
BITMAP
F8
18
F8
18
18
18
18
18
18
ENDCHAR
STARTCHAR uni00B9
ENCODING 185
SWIDTH 692 0
DWIDTH 9 0
BBX 7 14 0 -3
BITMAP
36
36
36
36
36
F6
06
F6
36
36
36
36
36
36
ENDCHAR
STARTCHAR ordmasculine
ENCODING 186
SWIDTH 692 0
DWIDTH 9 0
BBX 5 14 2 -3
BITMAP
D8
D8
D8
D8
D8
D8
D8
D8
D8
D8
D8
D8
D8
D8
ENDCHAR
STARTCHAR guillemotright
ENCODING 187
SWIDTH 692 0
DWIDTH 9 0
BBX 7 9 0 -3
BITMAP
FE
06
F6
36
36
36
36
36
36
ENDCHAR
STARTCHAR onequarter
ENCODING 188
SWIDTH 692 0
DWIDTH 9 0
BBX 7 8 0 3
BITMAP
36
36
36
36
36
F6
06
FE
ENDCHAR
STARTCHAR onehalf
ENCODING 189
SWIDTH 692 0
DWIDTH 9 0
BBX 7 8 0 3
BITMAP
36
36
36
36
36
36
36
FE
ENDCHAR
STARTCHAR threequarters
ENCODING 190
SWIDTH 692 0
DWIDTH 9 0
BBX 5 8 0 3
BITMAP
18
18
18
18
18
F8
18
F8
ENDCHAR
STARTCHAR questiondown
ENCODING 191
SWIDTH 692 0
DWIDTH 9 0
BBX 5 7 0 -3
BITMAP
F8
18
18
18
18
18
18
ENDCHAR
STARTCHAR Agrave
ENCODING 192
SWIDTH 692 0
DWIDTH 9 0
BBX 6 8 3 3
BITMAP
C0
C0
C0
C0
C0
C0
C0
FC
ENDCHAR
STARTCHAR Aacute
ENCODING 193
SWIDTH 692 0
DWIDTH 9 0
BBX 9 8 0 3
BITMAP
1800
1800
1800
1800
1800
1800
1800
FF80
ENDCHAR
STARTCHAR Acircumflex
ENCODING 194
SWIDTH 692 0
DWIDTH 9 0
BBX 9 7 0 -3
BITMAP
FF80
1800
1800
1800
1800
1800
1800
ENDCHAR
STARTCHAR Atilde
ENCODING 195
SWIDTH 692 0
DWIDTH 9 0
BBX 6 14 3 -3
BITMAP
C0
C0
C0
C0
C0
C0
C0
FC
C0
C0
C0
C0
C0
C0
ENDCHAR
STARTCHAR Adieresis
ENCODING 196
SWIDTH 692 0
DWIDTH 9 0
BBX 9 1 0 3
BITMAP
FF80
ENDCHAR
STARTCHAR Aring
ENCODING 197
SWIDTH 692 0
DWIDTH 9 0
BBX 9 14 0 -3
BITMAP
1800
1800
1800
1800
1800
1800
1800
FF80
1800
1800
1800
1800
1800
1800
ENDCHAR
STARTCHAR AE
ENCODING 198
SWIDTH 692 0
DWIDTH 9 0
BBX 6 14 3 -3
BITMAP
C0
C0
C0
C0
C0
FC
C0
FC
C0
C0
C0
C0
C0
C0
ENDCHAR
STARTCHAR Ccedilla
ENCODING 199
SWIDTH 692 0
DWIDTH 9 0
BBX 7 14 2 -3
BITMAP
D8
D8
D8
D8
D8
D8
D8
DE
D8
D8
D8
D8
D8
D8
ENDCHAR
STARTCHAR Egrave
ENCODING 200
SWIDTH 692 0
DWIDTH 9 0
BBX 7 8 2 3
BITMAP
D8
D8
D8
D8
D8
DE
C0
FE
ENDCHAR
STARTCHAR Eacute
ENCODING 201
SWIDTH 692 0
DWIDTH 9 0
BBX 7 9 2 -3
BITMAP
FE
C0
DE
D8
D8
D8
D8
D8
D8
ENDCHAR
STARTCHAR Ecircumflex
ENCODING 202
SWIDTH 692 0
DWIDTH 9 0
BBX 9 8 0 3
BITMAP
3600
3600
3600
3600
3600
F780
0000
FF80
ENDCHAR
STARTCHAR Edieresis
ENCODING 203
SWIDTH 692 0
DWIDTH 9 0
BBX 9 9 0 -3
BITMAP
FF80
0000
F780
3600
3600
3600
3600
3600
3600
ENDCHAR
STARTCHAR Igrave
ENCODING 204
SWIDTH 692 0
DWIDTH 9 0
BBX 7 14 2 -3
BITMAP
D8
D8
D8
D8
D8
DE
C0
DE
D8
D8
D8
D8
D8
D8
ENDCHAR
STARTCHAR Iacute
ENCODING 205
SWIDTH 692 0
DWIDTH 9 0
BBX 9 3 0 3
BITMAP
FF80
0000
FF80
ENDCHAR
STARTCHAR Icircumflex
ENCODING 206
SWIDTH 692 0
DWIDTH 9 0
BBX 9 14 0 -3
BITMAP
3600
3600
3600
3600
3600
F780
0000
F780
3600
3600
3600
3600
3600
3600
ENDCHAR
STARTCHAR Idieresis
ENCODING 207
SWIDTH 692 0
DWIDTH 9 0
BBX 9 8 0 3
BITMAP
1800
1800
1800
1800
1800
FF80
0000
FF80
ENDCHAR
STARTCHAR Eth
ENCODING 208
SWIDTH 692 0
DWIDTH 9 0
BBX 9 8 0 3
BITMAP
3600
3600
3600
3600
3600
3600
3600
FF80
ENDCHAR
STARTCHAR Ntilde
ENCODING 209
SWIDTH 692 0
DWIDTH 9 0
BBX 9 9 0 -3
BITMAP
FF80
0000
FF80
1800
1800
1800
1800
1800
1800
ENDCHAR
STARTCHAR Ograve
ENCODING 210
SWIDTH 692 0
DWIDTH 9 0
BBX 9 7 0 -3
BITMAP
FF80
3600
3600
3600
3600
3600
3600
ENDCHAR
STARTCHAR Oacute
ENCODING 211
SWIDTH 692 0
DWIDTH 9 0
BBX 7 8 2 3
BITMAP
D8
D8
D8
D8
D8
D8
D8
FE
ENDCHAR
STARTCHAR Ocircumflex
ENCODING 212
SWIDTH 692 0
DWIDTH 9 0
BBX 6 8 3 3
BITMAP
C0
C0
C0
C0
C0
FC
C0
FC
ENDCHAR
STARTCHAR Otilde
ENCODING 213
SWIDTH 692 0
DWIDTH 9 0
BBX 6 9 3 -3
BITMAP
FC
C0
FC
C0
C0
C0
C0
C0
C0
ENDCHAR
STARTCHAR Odieresis
ENCODING 214
SWIDTH 692 0
DWIDTH 9 0
BBX 7 7 2 -3
BITMAP
FE
D8
D8
D8
D8
D8
D8
ENDCHAR
STARTCHAR multiply
ENCODING 215
SWIDTH 692 0
DWIDTH 9 0
BBX 9 14 0 -3
BITMAP
3600
3600
3600
3600
3600
3600
3600
FF80
3600
3600
3600
3600
3600
3600
ENDCHAR
STARTCHAR Oslash
ENCODING 216
SWIDTH 692 0
DWIDTH 9 0
BBX 9 14 0 -3
BITMAP
1800
1800
1800
1800
1800
FF80
1800
FF80
1800
1800
1800
1800
1800
1800
ENDCHAR
STARTCHAR Ugrave
ENCODING 217
SWIDTH 692 0
DWIDTH 9 0
BBX 5 8 0 3
BITMAP
18
18
18
18
18
18
18
F8
ENDCHAR
STARTCHAR Uacute
ENCODING 218
SWIDTH 692 0
DWIDTH 9 0
BBX 6 7 3 -3
BITMAP
FC
C0
C0
C0
C0
C0
C0
ENDCHAR
STARTCHAR Ucircumflex
ENCODING 219
SWIDTH 692 0
DWIDTH 9 0
BBX 9 14 0 -3
BITMAP
FF80
FF80
FF80
FF80
FF80
FF80
FF80
FF80
FF80
FF80
FF80
FF80
FF80
FF80
ENDCHAR
STARTCHAR Udieresis
ENCODING 220
SWIDTH 692 0
DWIDTH 9 0
BBX 9 7 0 -3
BITMAP
FF80
FF80
FF80
FF80
FF80
FF80
FF80
ENDCHAR
STARTCHAR Yacute
ENCODING 221
SWIDTH 692 0
DWIDTH 9 0
BBX 4 14 0 -3
BITMAP
F0
F0
F0
F0
F0
F0
F0
F0
F0
F0
F0
F0
F0
F0
ENDCHAR
STARTCHAR Thorn
ENCODING 222
SWIDTH 692 0
DWIDTH 9 0
BBX 5 14 4 -3
BITMAP
F8
F8
F8
F8
F8
F8
F8
F8
F8
F8
F8
F8
F8
F8
ENDCHAR
STARTCHAR germandbls
ENCODING 223
SWIDTH 692 0
DWIDTH 9 0
BBX 9 7 0 4
BITMAP
FF80
FF80
FF80
FF80
FF80
FF80
FF80
ENDCHAR
STARTCHAR agrave
ENCODING 224
SWIDTH 692 0
DWIDTH 9 0
BBX 7 6 1 0
BITMAP
76
DC
D8
D8
DC
76
ENDCHAR
STARTCHAR aacute
ENCODING 225
SWIDTH 692 0
DWIDTH 9 0
BBX 7 9 1 -2
BITMAP
7C
C6
FC
C6
C6
FC
C0
C0
40
ENDCHAR
STARTCHAR acircumflex
ENCODING 226
SWIDTH 692 0
DWIDTH 9 0
BBX 7 9 1 0
BITMAP
FE
C6
C6
C0
C0
C0
C0
C0
C0
ENDCHAR
STARTCHAR atilde
ENCODING 227
SWIDTH 692 0
DWIDTH 9 0
BBX 7 7 1 0
BITMAP
FE
6C
6C
6C
6C
6C
6C
ENDCHAR
STARTCHAR adieresis
ENCODING 228
SWIDTH 692 0
DWIDTH 9 0
BBX 7 9 1 0
BITMAP
FE
C6
60
30
18
30
60
C6
FE
ENDCHAR
STARTCHAR aring
ENCODING 229
SWIDTH 692 0
DWIDTH 9 0
BBX 7 6 1 0
BITMAP
7E
D8
D8
D8
D8
70
ENDCHAR
STARTCHAR ae
ENCODING 230
SWIDTH 692 0
DWIDTH 9 0
BBX 7 8 1 -1
BITMAP
66
66
66
66
7C
60
60
C0
ENDCHAR
STARTCHAR ccedilla
ENCODING 231
SWIDTH 692 0
DWIDTH 9 0
BBX 7 7 1 0
BITMAP
76
DC
18
18
18
18
18
ENDCHAR
STARTCHAR egrave
ENCODING 232
SWIDTH 692 0
DWIDTH 9 0
BBX 6 9 1 0
BITMAP
FC
30
78
CC
CC
CC
78
30
FC
ENDCHAR
STARTCHAR eacute
ENCODING 233
SWIDTH 692 0
DWIDTH 9 0
BBX 7 9 1 0
BITMAP
38
6C
C6
C6
FE
C6
C6
6C
38
ENDCHAR
STARTCHAR ecircumflex
ENCODING 234
SWIDTH 692 0
DWIDTH 9 0
BBX 7 9 1 0
BITMAP
38
6C
C6
C6
C6
6C
6C
6C
EE
ENDCHAR
STARTCHAR edieresis
ENCODING 235
SWIDTH 692 0
DWIDTH 9 0
BBX 6 9 1 0
BITMAP
3C
60
30
18
7C
CC
CC
CC
78
ENDCHAR
STARTCHAR igrave
ENCODING 236
SWIDTH 692 0
DWIDTH 9 0
BBX 8 4 0 2
BITMAP
7E
DB
DB
7E
ENDCHAR
STARTCHAR iacute
ENCODING 237
SWIDTH 692 0
DWIDTH 9 0
BBX 8 9 0 0
BITMAP
03
06
7E
DB
DB
F3
7E
60
C0
ENDCHAR
STARTCHAR icircumflex
ENCODING 238
SWIDTH 692 0
DWIDTH 9 0
BBX 5 9 1 0
BITMAP
38
60
C0
C0
F8
C0
C0
60
38
ENDCHAR
STARTCHAR idieresis
ENCODING 239
SWIDTH 692 0
DWIDTH 9 0
BBX 7 8 1 0
BITMAP
7C
C6
C6
C6
C6
C6
C6
C6
ENDCHAR
STARTCHAR eth
ENCODING 240
SWIDTH 692 0
DWIDTH 9 0
BBX 7 7 1 1
BITMAP
FE
00
00
FE
00
00
FE
ENDCHAR
STARTCHAR ntilde
ENCODING 241
SWIDTH 692 0
DWIDTH 9 0
BBX 8 9 0 0
BITMAP
18
18
18
FF
18
18
18
00
FF
ENDCHAR
STARTCHAR ograve
ENCODING 242
SWIDTH 692 0
DWIDTH 9 0
BBX 6 9 1 0
BITMAP
60
30
18
0C
18
30
60
00
FC
ENDCHAR
STARTCHAR oacute
ENCODING 243
SWIDTH 692 0
DWIDTH 9 0
BBX 6 9 1 0
BITMAP
18
30
60
C0
60
30
18
00
FC
ENDCHAR
STARTCHAR ocircumflex
ENCODING 244
SWIDTH 692 0
DWIDTH 9 0
BBX 5 12 3 -3
BITMAP
70
D8
D8
C0
C0
C0
C0
C0
C0
C0
C0
C0
ENDCHAR
STARTCHAR otilde
ENCODING 245
SWIDTH 692 0
DWIDTH 9 0
BBX 5 11 0 0
BITMAP
18
18
18
18
18
18
18
18
D8
D8
70
ENDCHAR
STARTCHAR odieresis
ENCODING 246
SWIDTH 692 0
DWIDTH 9 0
BBX 8 9 0 0
BITMAP
18
18
00
00
FF
00
00
18
18
ENDCHAR
STARTCHAR divide
ENCODING 247
SWIDTH 692 0
DWIDTH 9 0
BBX 7 5 1 2
BITMAP
76
DC
00
76
DC
ENDCHAR
STARTCHAR oslash
ENCODING 248
SWIDTH 692 0
DWIDTH 9 0
BBX 5 4 1 6
BITMAP
70
D8
D8
70
ENDCHAR
STARTCHAR ugrave
ENCODING 249
SWIDTH 692 0
DWIDTH 9 0
BBX 2 2 3 3
BITMAP
C0
C0
ENDCHAR
STARTCHAR uacute
ENCODING 250
SWIDTH 692 0
DWIDTH 9 0
BBX 2 1 3 3
BITMAP
C0
ENDCHAR
STARTCHAR ucircumflex
ENCODING 251
SWIDTH 692 0
DWIDTH 9 0
BBX 8 10 0 0
BITMAP
0F
0C
0C
0C
0C
0C
EC
6C
3C
1C
ENDCHAR
STARTCHAR udieresis
ENCODING 252
SWIDTH 692 0
DWIDTH 9 0
BBX 6 6 0 4
BITMAP
D8
6C
6C
6C
6C
6C
ENDCHAR
STARTCHAR yacute
ENCODING 253
SWIDTH 692 0
DWIDTH 9 0
BBX 5 6 2 4
BITMAP
70
D8
30
60
C8
F8
ENDCHAR
STARTCHAR thorn
ENCODING 254
SWIDTH 692 0
DWIDTH 9 0
BBX 5 6 2 1
BITMAP
F8
F8
F8
F8
F8
F8
ENDCHAR
STARTCHAR ydieresis
ENCODING 255
SWIDTH 692 0
DWIDTH 9 0
BBX 1 1 8 -3
BITMAP
00
ENDCHAR
ENDFONT
